{"title":"Tokyo-Hot ~ Masochistic Cock Lover (Uncensored) DVDRip","uid":10825734,"size":986822649,"categoryP":"porn","categoryS":"movie_clips","magnet":"?xt=urn:btih:2de79789a46ff138b8620401b56973f166e90b8e&amp;dn=Tokyo-Hot+%7E+Masochistic+Cock+Lover+%28Uncensored%29+DVDRip&amp;tr=udp%3A%2F%2Ftracker.openbittorrent.com%3A80&amp;tr=udp%3A%2F%2Fopen.demonii.com%3A1337&amp;tr=udp%3A%2F%2Ftracker.coppersurfer.tk%3A6969&amp;tr=udp%3A%2F%2Fexodus.desync.com%3A6969","seeders":1,"leechers":0,"uploader":"ThousandPeers","files":-1,"time":1408578741,"description":"Format                                   : MPEG-4\nFormat profile                           : Base Media\nCodec ID                                 : isom\nFile size                                : 941 MiB\nDuration                                 : 1h 38mn\nOverall bit rate mode                    : Constant\nOverall bit rate                         : 1 330 Kbps\nEncoded date                             : UTC 2013-08-26 05:02:11\nTagged date                              : UTC 2013-08-26 05:02:11\n\nVideo\nID                                       : 1\nFormat                                   : AVC\nFormat/Info                              : Advanced Video Codec\nFormat profile                           : &lt;a class=&quot;__cf_email__&quot; href=&quot;/cdn-cgi/l/email-protection&quot; data-cfemail=&quot;1d55747a755d512e332d&quot;&gt;[email&amp;#160;protected]&lt;/a&gt;&lt;script cf-hash='f9e31' type=&quot;text/javascript&quot;&gt;\n/* &lt;![CDATA[ */!function(){try{var t=&quot;currentScript&quot;in document?document.currentScript:function(){for(var t=document.getElementsByTagName(&quot;script&quot;),e=t.length;e--;)if(t[e].getAttribute(&quot;cf-hash&quot;))return t[e]}();if(t&amp;&amp;t.previousSibling){var e,r,n,i,c=t.previousSibling,a=c.getAttribute(&quot;data-cfemail&quot;);if(a){for(e=&quot;&quot;,r=parseInt(a.substr(0,2),16),n=2;a.length-n;n+=2)i=parseInt(a.substr(n,2),16)^r,e+=String.fromCharCode(i);e=document.createTextNode(e),c.parentNode.replaceChild(e,c)}}}catch(u){}}();/* ]]&gt; */&lt;/script&gt;\nFormat settings, CABAC                   : No\nFormat settings, ReFrames                : 1 frame\nFormat settings, GOP                     : M=1, N=33\nCodec ID                                 : avc1\nCodec ID/Info                            : Advanced Video Coding\nDuration                                 : 1h 38mn\nSource duration                          : 1h 38mn\nBit rate mode                            : Constant\nBit rate                                 : 1 141 Kbps\nNominal bit rate                         : 1 200 Kbps\nWidth                                    : 720 pixels\nHeight                                   : 404 pixels\nDisplay aspect ratio                     : 16:9\nFrame rate mode                          : Constant\nFrame rate                               : 29.970 fps\nStandard                                 : NTSC\nColor space                              : YUV\nChroma subsampling                       : 4:2:0\nBit depth                                : 8 bits\nScan type                                : Progressive\nBits/(Pixel*Frame)                       : 0.131\nStream size                              : 807 MiB (86%)\nSource stream size                       : 848 MiB (90%)\nLanguage                                 : English\nEncoded date                             : UTC 2013-08-26 05:02:11\nTagged date                              : UTC 2013-08-26 05:02:11\nmdhd_Duration                            : 5928157\nColor primaries                          : BT.601 NTSC\nTransfer characteristics                 : BT.601\nMatrix coefficients                      : BT.601\n\nAudio\nID                                       : 2\nFormat                                   : AAC\nFormat/Info                              : Advanced Audio Codec\nFormat profile                           : LC\nCodec ID                                 : 40\nDuration                                 : 1h 38mn\nBit rate mode                            : Constant\nBit rate                                 : 128 Kbps\nChannel(s)                               : 2 channels\nChannel positions                        : Front: L R\nSampling rate                            : 48.0 KHz\nCompression mode                         : Lossy\nStream size                              : 90.3 MiB (10%)\nLanguage                                 : English","torrent":{"xt":"urn:btih:2de79789a46ff138b8620401b56973f166e90b8e","amp;dn":"Tokyo-Hot+%7E+Masochistic+Cock+Lover+%28Uncensored%29+DVDRip","amp;tr":["udp%3A%2F%2Ftracker.openbittorrent.com%3A80","udp%3A%2F%2Fopen.demonii.com%3A1337","udp%3A%2F%2Ftracker.coppersurfer.tk%3A6969","udp%3A%2F%2Fexodus.desync.com%3A6969"],"infoHash":"2de79789a46ff138b8620401b56973f166e90b8e","infoHashBuffer":{"type":"Buffer","data":[45,231,151,137,164,111,241,56,184,98,4,1,181,105,115,241,102,233,11,142]},"announce":[],"urlList":[]}}